<svg width="21" height="22" viewBox="0 0 21 22" fill="none" xmlns="http://www.w3.org/2000/svg">
<path d="M18.75 0.5C19.375 0.5 19.9062 0.71875 20.3438 1.15625C20.7812 1.59375 21 2.125 21 2.75V19.25C21 19.875 20.7812 20.4062 20.3438 20.8438C19.9062 21.2812 19.375 21.5 18.75 21.5H2.25C1.625 21.5 1.09375 21.2812 0.65625 20.8438C0.21875 20.4062 0 19.875 0 19.25V2.75C0 2.125 0.21875 1.59375 0.65625 1.15625C1.09375 0.71875 1.625 0.5 2.25 0.5H18.75ZM16.4531 7.95312C17.0469 7.51562 17.5625 6.98437 18 6.35938C17.4062 6.60937 16.8125 6.76563 16.2188 6.82812C16.875 6.42187 17.3281 5.85937 17.5781 5.14062C16.9531 5.51562 16.2969 5.76562 15.6094 5.89062C15.0156 5.23438 14.2812 4.90625 13.4062 4.90625C12.4375 4.90625 11.6406 5.28125 11.0156 6.03125C10.3906 6.78125 10.1875 7.67188 10.4062 8.70312C7.8125 8.54688 5.6875 7.46875 4.03125 5.46875C3.75 5.9375 3.60938 6.45312 3.60938 7.01562C3.60938 7.32812 3.67188 7.65625 3.79688 8C3.92188 8.3125 4.09375 8.60938 4.3125 8.89062C4.53125 9.17188 4.76562 9.40625 5.01562 9.59375C4.51562 9.5625 4.04688 9.42188 3.60938 9.17188V9.21875C3.60938 9.96875 3.84375 10.625 4.3125 11.1875C4.78125 11.75 5.375 12.1094 6.09375 12.2656C5.65625 12.3594 5.1875 12.375 4.6875 12.3125C4.875 12.9375 5.23438 13.4531 5.76562 13.8594C6.29688 14.2344 6.89062 14.4219 7.54688 14.4219C6.42188 15.2969 5.15625 15.7344 3.75 15.7344C3.46875 15.7344 3.21875 15.7188 3 15.6875C4.4375 16.625 6.01562 17.0938 7.73438 17.0938C9.51562 17.0938 11.0938 16.6406 12.4688 15.7344C13.8438 14.8281 14.8438 13.7188 15.4688 12.4062C16.125 11.0938 16.4531 9.73438 16.4531 8.32812C16.4531 8.17188 16.4531 8.04688 16.4531 7.95312Z" fill="#183249"/>
</svg>
