<svg width="21" height="22" viewBox="0 0 21 22" fill="none" xmlns="http://www.w3.org/2000/svg">
<path d="M18.75 0.5H2.25C1.625 0.5 1.09375 0.71875 0.65625 1.15625C0.21875 1.59375 0 2.125 0 2.75V19.25C0 19.875 0.21875 20.4062 0.65625 20.8438C1.09375 21.2812 1.625 21.5 2.25 21.5H18.75C19.375 21.5 19.9062 21.2812 20.3438 20.8438C20.7812 20.4062 21 19.875 21 19.25V2.75C21 2.125 20.7812 1.59375 20.3438 1.15625C19.9062 0.71875 19.375 0.5 18.75 0.5ZM16.4531 7.95312C16.4531 8.04688 16.4531 8.17188 16.4531 8.32812C16.4531 9.73438 16.125 11.0938 15.4688 12.4062C14.75 13.8125 13.7656 14.9219 12.5156 15.7344C11.1094 16.6406 9.51562 17.0938 7.73438 17.0938C6.01562 17.0938 4.4375 16.6406 3 15.7344C3.21875 15.7344 3.46875 15.7344 3.75 15.7344C5.15625 15.7344 6.42188 15.2969 7.54688 14.4219C6.89062 14.4219 6.29688 14.2344 5.76562 13.8594C5.23438 13.4531 4.875 12.9375 4.6875 12.3125C5.1875 12.375 5.65625 12.3594 6.09375 12.2656C5.375 12.1094 4.78125 11.75 4.3125 11.1875C3.84375 10.625 3.60938 9.96875 3.60938 9.21875V9.17188C4.04688 9.42188 4.51562 9.5625 5.01562 9.59375C4.57812 9.3125 4.23438 8.95312 3.98438 8.51562C3.73438 8.04688 3.60938 7.54688 3.60938 7.01562C3.60938 6.45312 3.75 5.9375 4.03125 5.46875C4.8125 6.40625 5.75 7.17188 6.84375 7.76562C7.9375 8.32812 9.125 8.64062 10.4062 8.70312C10.25 8.01562 10.2969 7.39062 10.5469 6.82812C10.7969 6.23437 11.1719 5.76562 11.6719 5.42188C12.2031 5.07813 12.7812 4.90625 13.4062 4.90625C14.2812 4.90625 15.0156 5.23438 15.6094 5.89062C16.2969 5.76562 16.9531 5.51562 17.5781 5.14062C17.3281 5.85937 16.875 6.42187 16.2188 6.82812C16.8125 6.76563 17.4062 6.60937 18 6.35938C17.5625 6.98437 17.0469 7.51562 16.4531 7.95312Z" fill="#EFF8FA"/>
</svg>
