<svg width="21" height="22" viewBox="0 0 21 22" fill="none" xmlns="http://www.w3.org/2000/svg">
<path d="M21 2.75V19.25C21 19.875 20.7812 20.4062 20.3438 20.8438C19.9062 21.2812 19.375 21.5 18.75 21.5H14.7656V13.2031H17.5781L18 10.0156H14.7656V8C14.7656 7.5 14.8594 7.125 15.0469 6.875C15.2969 6.59375 15.7188 6.45312 16.3125 6.45312H18V3.64062C17.3438 3.54688 16.5312 3.5 15.5625 3.5C14.3125 3.5 13.3125 3.875 12.5625 4.625C11.8438 5.34375 11.4844 6.35938 11.4844 7.67188V10.0156H8.625V13.2031H11.4844V21.5H2.25C1.625 21.5 1.09375 21.2812 0.65625 20.8438C0.21875 20.4062 0 19.875 0 19.25V2.75C0 2.125 0.21875 1.59375 0.65625 1.15625C1.09375 0.71875 1.625 0.5 2.25 0.5H18.75C19.375 0.5 19.9062 0.71875 20.3438 1.15625C20.7812 1.59375 21 2.125 21 2.75Z" fill="#EFF8FA"/>
</svg>
