<svg width="21" height="22" viewBox="0 0 21 22" fill="none" xmlns="http://www.w3.org/2000/svg">
<path d="M10.5 5.60938C9.53125 5.60938 8.625 5.85937 7.78125 6.35938C6.96875 6.82812 6.3125 7.48438 5.8125 8.32812C5.34375 9.14062 5.10938 10.0312 5.10938 11C5.10938 11.9688 5.34375 12.875 5.8125 13.7188C6.3125 14.5312 6.96875 15.1875 7.78125 15.6875C8.625 16.1562 9.53125 16.3906 10.5 16.3906C11.4688 16.3906 12.3594 16.1562 13.1719 15.6875C14.0156 15.1875 14.6719 14.5312 15.1406 13.7188C15.6406 12.875 15.8906 11.9688 15.8906 11C15.8906 10.0312 15.6406 9.14062 15.1406 8.32812C14.6719 7.48438 14.0156 6.82812 13.1719 6.35938C12.3594 5.85937 11.4688 5.60938 10.5 5.60938ZM10.5 14.5156C9.53125 14.5156 8.70312 14.1719 8.01562 13.4844C7.32812 12.7969 6.98438 11.9688 6.98438 11C6.98438 10.0312 7.32812 9.20312 8.01562 8.51562C8.70312 7.82812 9.53125 7.48438 10.5 7.48438C11.4688 7.48438 12.2969 7.82812 12.9844 8.51562C13.6719 9.20312 14.0156 10.0312 14.0156 11C14.0156 11.9688 13.6719 12.7969 12.9844 13.4844C12.2969 14.1719 11.4688 14.5156 10.5 14.5156ZM17.3906 5.375C17.3594 5.71875 17.2188 6.01563 16.9688 6.26562C16.75 6.51562 16.4688 6.64062 16.125 6.64062C15.7812 6.64062 15.4844 6.51562 15.2344 6.26562C14.9844 6.01563 14.8594 5.71875 14.8594 5.375C14.8594 5.03125 14.9844 4.73437 15.2344 4.48438C15.4844 4.23438 15.7812 4.10938 16.125 4.10938C16.4688 4.10938 16.7656 4.23438 17.0156 4.48438C17.2656 4.73437 17.3906 5.03125 17.3906 5.375ZM20.9531 6.64062C20.8906 5.73438 20.75 4.95312 20.5312 4.29688C20.25 3.51562 19.8125 2.84375 19.2188 2.28125C18.6562 1.6875 17.9844 1.25 17.2031 0.96875C16.5469 0.75 15.7656 0.625 14.8594 0.59375C13.9844 0.53125 12.5312 0.5 10.5 0.5C8.46875 0.5 7 0.53125 6.09375 0.59375C5.21875 0.625 4.45312 0.75 3.79688 0.96875C3.01562 1.25 2.32812 1.6875 1.73438 2.28125C1.17188 2.84375 0.75 3.51562 0.46875 4.29688C0.25 4.95312 0.109375 5.73438 0.046875 6.64062C0.015625 7.51562 0 8.96875 0 11C0 13.0312 0.015625 14.5 0.046875 15.4062C0.109375 16.2812 0.25 17.0469 0.46875 17.7031C0.75 18.4844 1.17188 19.1719 1.73438 19.7656C2.32812 20.3281 3.01562 20.7344 3.79688 20.9844C4.45312 21.2344 5.21875 21.375 6.09375 21.4062C7 21.4688 8.46875 21.5 10.5 21.5C12.5312 21.5 13.9844 21.4688 14.8594 21.4062C15.7656 21.375 16.5469 21.25 17.2031 21.0312C17.9844 20.75 18.6562 20.3281 19.2188 19.7656C19.8125 19.1719 20.25 18.4844 20.5312 17.7031C20.75 17.0469 20.875 16.2812 20.9062 15.4062C20.9688 14.5 21 13.0312 21 11C21 8.96875 20.9844 7.51562 20.9531 6.64062ZM18.7031 17.1875C18.3281 18.125 17.6562 18.7969 16.6875 19.2031C16.1875 19.3906 15.3438 19.5156 14.1562 19.5781C13.5 19.6094 12.5312 19.625 11.25 19.625H9.75C8.5 19.625 7.53125 19.6094 6.84375 19.5781C5.6875 19.5156 4.84375 19.3906 4.3125 19.2031C3.375 18.8281 2.70312 18.1562 2.29688 17.1875C2.10938 16.6562 1.98438 15.8125 1.92188 14.6562C1.89062 13.9688 1.875 13 1.875 11.75V10.25C1.875 9 1.89062 8.03125 1.92188 7.34375C1.98438 6.15625 2.10938 5.3125 2.29688 4.8125C2.67188 3.84375 3.34375 3.17188 4.3125 2.79688C4.84375 2.60938 5.6875 2.48437 6.84375 2.42188C7.53125 2.39062 8.5 2.375 9.75 2.375H11.25C12.5 2.375 13.4688 2.39062 14.1562 2.42188C15.3438 2.48437 16.1875 2.60938 16.6875 2.79688C17.6562 3.17188 18.3281 3.84375 18.7031 4.8125C18.8906 5.3125 19.0156 6.15625 19.0781 7.34375C19.1094 8 19.125 8.96875 19.125 10.25V11.75C19.125 13 19.1094 13.9688 19.0781 14.6562C19.0156 15.8125 18.8906 16.6562 18.7031 17.1875Z" fill="#EFF8FA"/>
</svg>
