<svg width="22" height="22" viewBox="0 0 22 22" fill="none" xmlns="http://www.w3.org/2000/svg">
<path d="M6.70312 7.20312C7.76562 6.14062 9.04688 5.60938 10.5469 5.60938C12.0469 5.60938 13.3125 6.14062 14.3438 7.20312C15.4062 8.23438 15.9375 9.5 15.9375 11C15.9375 12.5 15.4062 13.7812 14.3438 14.8438C13.3125 15.875 12.0469 16.3906 10.5469 16.3906C9.04688 16.3906 7.76562 15.875 6.70312 14.8438C5.67188 13.7812 5.15625 12.5 5.15625 11C5.15625 9.5 5.67188 8.23438 6.70312 7.20312ZM8.0625 13.4844C8.75 14.1719 9.57812 14.5156 10.5469 14.5156C11.5156 14.5156 12.3438 14.1719 13.0312 13.4844C13.7188 12.7969 14.0625 11.9688 14.0625 11C14.0625 10.0312 13.7188 9.20312 13.0312 8.51562C12.3438 7.82812 11.5156 7.48438 10.5469 7.48438C9.57812 7.48438 8.75 7.82812 8.0625 8.51562C7.375 9.20312 7.03125 10.0312 7.03125 11C7.03125 11.9688 7.375 12.7969 8.0625 13.4844ZM17.0156 4.53125C17.2656 4.75 17.3906 5.03125 17.3906 5.375C17.3906 5.71875 17.2656 6.01563 17.0156 6.26562C16.7969 6.51562 16.5156 6.64062 16.1719 6.64062C15.8281 6.64062 15.5312 6.51562 15.2812 6.26562C15.0312 6.01563 14.9062 5.71875 14.9062 5.375C14.9062 5.03125 15.0312 4.75 15.2812 4.53125C15.5312 4.28125 15.8281 4.15625 16.1719 4.15625C16.5156 4.15625 16.7969 4.28125 17.0156 4.53125ZM21 6.6875C21.0312 7.53125 21.0469 8.96875 21.0469 11C21.0469 13.0312 21.0312 14.4688 21 15.3125C20.9062 17.2188 20.3281 18.7031 19.2656 19.7656C18.2344 20.7969 16.7656 21.3438 14.8594 21.4062C14.0156 21.4688 12.5781 21.5 10.5469 21.5C8.51562 21.5 7.07812 21.4688 6.23438 21.4062C4.32812 21.3125 2.85938 20.75 1.82812 19.7188C1.42188 19.3438 1.09375 18.9062 0.84375 18.4062C0.59375 17.9062 0.40625 17.4219 0.28125 16.9531C0.1875 16.4844 0.140625 15.9375 0.140625 15.3125C0.078125 14.4688 0.046875 13.0312 0.046875 11C0.046875 8.96875 0.078125 7.51562 0.140625 6.64062C0.234375 4.76562 0.796875 3.3125 1.82812 2.28125C2.85938 1.21875 4.32812 0.640625 6.23438 0.546875C7.07812 0.515625 8.51562 0.5 10.5469 0.5C12.5781 0.5 14.0156 0.515625 14.8594 0.546875C16.7656 0.640625 18.2344 1.21875 19.2656 2.28125C20.3281 3.3125 20.9062 4.78125 21 6.6875ZM18.75 17.1875C18.8438 16.9375 18.9219 16.625 18.9844 16.25C19.0469 15.8438 19.0938 15.375 19.125 14.8438C19.1562 14.2812 19.1719 13.8281 19.1719 13.4844C19.1719 13.1406 19.1719 12.6562 19.1719 12.0312C19.1719 11.4062 19.1719 11.0625 19.1719 11C19.1719 10.9062 19.1719 10.5625 19.1719 9.96875C19.1719 9.34375 19.1719 8.85938 19.1719 8.51562C19.1719 8.17188 19.1562 7.73438 19.125 7.20312C19.0938 6.64062 19.0469 6.17188 18.9844 5.79688C18.9219 5.39062 18.8438 5.0625 18.75 4.8125C18.375 3.84375 17.7031 3.17188 16.7344 2.79688C16.4844 2.70312 16.1562 2.625 15.75 2.5625C15.375 2.5 14.9062 2.45313 14.3438 2.42188C13.8125 2.39062 13.375 2.375 13.0312 2.375C12.7188 2.375 12.2344 2.375 11.5781 2.375C10.9531 2.375 10.6094 2.375 10.5469 2.375C10.4844 2.375 10.1406 2.375 9.51562 2.375C8.89062 2.375 8.40625 2.375 8.0625 2.375C7.71875 2.375 7.26562 2.39062 6.70312 2.42188C6.17188 2.45313 5.70312 2.5 5.29688 2.5625C4.92188 2.625 4.60938 2.70312 4.35938 2.79688C3.39062 3.17188 2.71875 3.84375 2.34375 4.8125C2.25 5.0625 2.17188 5.39062 2.10938 5.79688C2.04688 6.17188 2 6.64062 1.96875 7.20312C1.9375 7.73438 1.92188 8.17188 1.92188 8.51562C1.92188 8.82812 1.92188 9.3125 1.92188 9.96875C1.92188 10.5938 1.92188 10.9375 1.92188 11C1.92188 11.125 1.92188 11.4219 1.92188 11.8906C1.92188 12.3281 1.92188 12.7031 1.92188 13.0156C1.92188 13.2969 1.92188 13.6719 1.92188 14.1406C1.95312 14.6094 1.98438 15.0156 2.01562 15.3594C2.04688 15.6719 2.09375 16 2.15625 16.3438C2.21875 16.6875 2.28125 16.9688 2.34375 17.1875C2.75 18.1562 3.42188 18.8281 4.35938 19.2031C4.60938 19.2969 4.92188 19.375 5.29688 19.4375C5.70312 19.5 6.17188 19.5469 6.70312 19.5781C7.26562 19.6094 7.70312 19.625 8.01562 19.625C8.35938 19.625 8.84375 19.625 9.46875 19.625C10.125 19.625 10.4844 19.625 10.5469 19.625C10.6406 19.625 10.9844 19.625 11.5781 19.625C12.2031 19.625 12.6875 19.625 13.0312 19.625C13.375 19.625 13.8125 19.6094 14.3438 19.5781C14.9062 19.5469 15.375 19.5 15.75 19.4375C16.1562 19.375 16.4844 19.2969 16.7344 19.2031C17.7031 18.7969 18.375 18.125 18.75 17.1875Z" fill="#183249"/>
</svg>
