<svg width="24" height="18" viewBox="0 0 24 18" fill="none" xmlns="http://www.w3.org/2000/svg">
<path d="M23.5312 5.95312C23.625 5.85938 23.7188 5.84375 23.8125 5.90625C23.9375 5.96875 24 6.0625 24 6.1875V15.75C24 16.375 23.7812 16.9062 23.3438 17.3438C22.9062 17.7812 22.375 18 21.75 18H2.25C1.625 18 1.09375 17.7812 0.65625 17.3438C0.21875 16.9062 0 16.375 0 15.75V6.1875C0 6.0625 0.046875 5.98438 0.140625 5.95312C0.265625 5.89062 0.375 5.89062 0.46875 5.95312C1.5 6.73438 3.90625 8.5 7.6875 11.25C7.75 11.3125 7.95312 11.4844 8.29688 11.7656C8.67188 12.0469 8.96875 12.2656 9.1875 12.4219C9.40625 12.5469 9.6875 12.7188 10.0312 12.9375C10.375 13.125 10.7031 13.2656 11.0156 13.3594C11.3594 13.4531 11.6875 13.5 12 13.5C12.2812 13.5 12.5625 13.4688 12.8438 13.4062C13.125 13.3125 13.3906 13.2188 13.6406 13.125C13.8906 13 14.1562 12.8438 14.4375 12.6562C14.7188 12.4688 14.9531 12.3125 15.1406 12.1875C15.3281 12.0312 15.5469 11.8594 15.7969 11.6719C16.0469 11.4844 16.2188 11.3438 16.3125 11.25C20 8.59375 22.4062 6.82812 23.5312 5.95312ZM12 12C11.75 12 11.4375 11.9219 11.0625 11.7656C10.7188 11.5781 10.4375 11.4219 10.2188 11.2969C10 11.1406 9.67188 10.9062 9.23438 10.5938C8.82812 10.25 8.60938 10.0781 8.57812 10.0781C4.76562 7.29688 2.04688 5.28125 0.421875 4.03125C0.140625 3.8125 0 3.51562 0 3.14062V2.25C0 1.625 0.21875 1.09375 0.65625 0.65625C1.09375 0.21875 1.625 0 2.25 0H21.75C22.375 0 22.9062 0.21875 23.3438 0.65625C23.7812 1.09375 24 1.625 24 2.25V3.14062C24 3.51562 23.8594 3.8125 23.5781 4.03125C22.0469 5.21875 19.3281 7.23438 15.4219 10.0781C15.3906 10.0781 15.1562 10.25 14.7188 10.5938C14.3125 10.9062 14 11.1406 13.7812 11.2969C13.5625 11.4219 13.2656 11.5781 12.8906 11.7656C12.5469 11.9219 12.25 12 12 12Z" fill="#EFF8FA"/>
</svg>
