<svg fill="none" height="532" viewBox="0 0 529 532" width="529" xmlns="http://www.w3.org/2000/svg"><path d="m61.7507 287.696-54.90334 45.798c-5.18692 4.867-7.339739 12.612-5.42243 17.884 1.91731 5.273 3.27625 11.742 6.39105 17.574 2.55642 7.03 9.18292 11.587 15.64802 10.234l71.5201-.106c11.0999 16.859 25.7119 32.443 41.4409 45.631l-7.481 72.347c-.397 7.107 2.718 12.94 9.344 17.497 2.395 1.119 5.988 2.799 8.383 3.919s5.987 2.8 8.382 3.919c5.988 2.8 14.209.81 19.396-4.058l51.23-50.432c20.196 3.609 41.508 4.823 61.543 2.522l45.834 54.978c4.871 5.195 12.614 7.357 17.882 5.444 5.267-1.913 11.732-3.265 17.558-6.375 7.024-2.551 11.572-9.175 10.213-15.645l-.182-71.554c16.839-11.088 32.4-25.69 45.566-41.413l72.321 7.562c7.104.405 12.93-2.705 17.478-9.33 1.116-2.395 2.792-5.988 3.908-8.383 1.117-2.394 2.792-5.987 3.909-8.382 2.792-5.987.794-14.214-4.077-19.409l-52.218-50.67c3.586-20.202 4.776-41.523 2.455-61.57l54.904-45.797c5.187-4.868 7.34-12.612 5.422-17.885-1.917-5.272-3.276-11.741-6.391-17.573-2.556-7.03-9.183-11.587-15.648-10.234l-71.52.105c-11.1-16.858-25.712-32.442-41.441-45.631l7.481-72.3465c.956-8.3047-3.357-14.6967-8.786-18.6937-2.395-1.1199-5.987-2.7996-8.382-3.9195-2.395-1.1198-5.988-2.7996-8.383-3.91943-5.987-2.7996-14.208-.80935-19.395 4.05813l-50.591 52.1897c-20.196-3.609-41.509-4.823-61.543-2.5223l-46.473-56.73521c-4.871-5.19454-12.614-7.356577-17.882-5.44394-5.268 1.91263-11.733 3.26534-17.559 6.37544-7.023 2.55021-11.571 9.17501-10.212 15.64471l.181 71.554c-16.839 11.0876-32.4 25.6906-45.565 41.4126l-72.321-7.562c-7.1042-.404-12.9302 2.706-17.4781 9.331-1.1167 2.395-2.7919 5.987-3.9087 8.382-1.1167 2.395-2.7919 5.987-3.90867 8.382-2.79194 5.987-.79389 14.214 4.07677 19.409l52.2186 50.67c-4.7027 22.597-5.3351 42.721-3.0142 62.767z" fill="#183249"/></svg>