<?xml version="1.0" standalone="no"?>
<!DOCTYPE svg PUBLIC "-//W3C//DTD SVG 20010904//EN"
 "http://www.w3.org/TR/2001/REC-SVG-20010904/DTD/svg10.dtd">
<svg version="1.0" xmlns="http://www.w3.org/2000/svg"
 width="1602.000000pt" height="1602.000000pt" viewBox="0 0 1602.000000 1602.000000"
 preserveAspectRatio="xMidYMid meet">
<metadata>
Created by potrace 1.11, written by Peter Selinger 2001-2013
</metadata>
<g transform="translate(0.000000,1602.000000) scale(0.100000,-0.100000)"
fill="#000000" stroke="none">
<path d="M10291 15523 c-36 -76 -71 -152 -79 -169 -14 -30 -13 -33 48 -139
192 -332 384 -793 503 -1209 l34 -118 865 -322 c540 -201 884 -334 916 -355
108 -69 189 -187 211 -305 17 -93 14 -499 -4 -571 -40 -156 -133 -277 -258
-336 -35 -16 -279 -104 -543 -195 -263 -91 -531 -183 -594 -205 -63 -23 -180
-64 -260 -91 -80 -28 -195 -69 -257 -91 l-111 -40 -27 -96 c-122 -432 -321
-910 -522 -1249 -24 -41 -43 -80 -43 -87 0 -12 143 -319 576 -1240 95 -203
187 -396 203 -427 36 -71 46 -139 31 -215 -26 -125 -107 -233 -337 -449 -106
-100 -172 -154 -207 -170 -55 -25 -185 -48 -226 -39 -14 2 -41 7 -60 10 -19 3
-44 8 -55 12 -21 6 -443 203 -650 303 -66 32 -160 77 -210 100 -49 23 -112 52
-140 66 -27 13 -189 88 -358 168 l-308 144 -100 -59 c-104 -62 -391 -211 -469
-243 -25 -10 -67 -29 -95 -41 -27 -12 -77 -32 -110 -44 -33 -13 -80 -31 -105
-41 -51 -20 -198 -67 -310 -100 -41 -12 -95 -27 -120 -34 -25 -8 -70 -19 -101
-26 -50 -11 -58 -16 -67 -44 -71 -219 -589 -1705 -608 -1744 -41 -85 -133
-176 -222 -220 l-76 -37 -281 -2 c-270 -3 -283 -2 -357 21 -96 29 -150 61
-210 122 -67 67 -95 128 -186 394 -78 229 -408 1182 -480 1389 l-37 105 -70
21 c-38 12 -126 39 -195 59 -142 43 -364 124 -458 167 -35 16 -66 29 -69 29
-20 0 -391 185 -513 255 -63 37 -119 67 -125 68 -9 0 -134 -57 -405 -186 -63
-30 -151 -71 -195 -92 -44 -20 -111 -52 -150 -70 -38 -18 -119 -56 -180 -85
-60 -28 -182 -86 -270 -127 -88 -42 -243 -116 -345 -166 l-185 -91 -85 0
c-118 0 -171 23 -296 127 -118 100 -346 342 -376 400 -49 96 -63 244 -32 346
8 29 99 226 201 439 175 364 287 598 517 1080 l97 202 -52 88 c-83 139 -262
513 -333 692 -65 166 -149 412 -187 550 -12 41 -24 79 -29 83 -4 5 -14 -9 -23
-30 -9 -21 -46 -105 -82 -188 -182 -413 -352 -935 -459 -1415 -341 -1534 -227
-3136 329 -4600 485 -1275 1310 -2429 2365 -3306 691 -575 1500 -1047 2301
-1344 193 -72 344 -121 347 -113 13 39 66 99 163 185 64 57 301 270 526 475
l410 372 -12 73 c-37 213 -47 608 -21 838 8 69 17 150 21 180 l6 55 -267 240
c-714 640 -737 662 -772 728 -45 84 -50 147 -22 257 31 123 67 222 117 328 50
106 98 150 193 179 52 16 88 15 758 -17 l703 -33 16 23 c158 226 370 444 671
691 110 90 112 93 112 133 0 23 -14 309 -30 636 -36 723 -36 742 -9 816 29 76
88 136 159 159 30 10 90 35 132 57 42 21 89 41 103 44 15 3 50 17 79 31 67 35
162 40 216 13 45 -23 22 2 555 -595 250 -279 445 -490 454 -489 9 1 77 10 151
20 192 27 618 27 810 0 74 -10 142 -19 151 -20 15 -1 193 192 753 821 98 110
191 208 207 217 76 45 188 54 299 23 143 -40 343 -121 391 -159 32 -26 80
-103 95 -153 13 -47 12 -101 -11 -581 -14 -291 -27 -581 -30 -644 -3 -63 -8
-142 -11 -175 l-5 -60 88 -71 c212 -170 415 -373 622 -621 l94 -113 51 0 c28
0 321 14 651 30 330 16 628 30 662 30 87 0 163 -31 226 -91 37 -36 53 -46 59
-37 28 41 264 527 317 653 370 876 559 1667 633 2640 15 205 15 842 0 1050
-77 1021 -299 1910 -699 2793 -700 1549 -1911 2858 -3408 3687 -142 79 -516
266 -635 319 -248 109 -840 326 -889 326 -12 0 -36 -42 -80 -137z"/>
<path d="M5495 14809 c-318 -40 -668 -170 -935 -346 -538 -356 -890 -927 -970
-1573 -14 -120 -12 -416 4 -540 108 -800 644 -1478 1396 -1765 83 -32 210 -71
260 -81 14 -3 33 -7 42 -10 10 -3 28 -7 40 -10 13 -2 32 -6 43 -8 174 -35 552
-41 701 -12 12 2 39 7 60 10 170 27 396 102 579 190 511 249 908 689 1103
1221 79 217 119 423 129 670 29 713 -305 1410 -878 1835 -304 225 -652 367
-1017 414 -134 17 -436 20 -557 5z"/>
<path d="M10250 3557 c-3 -2 -41 -8 -85 -12 -44 -3 -87 -8 -95 -9 -22 -4 -92
-18 -112 -22 -39 -8 -54 -13 -78 -22 -14 -5 -29 -11 -35 -12 -14 -4 -22 -6
-100 -35 -95 -35 -243 -115 -340 -184 -102 -72 -284 -253 -357 -356 -127 -180
-227 -418 -264 -630 -24 -136 -24 -384 0 -520 36 -206 123 -419 247 -605 84
-126 281 -324 408 -409 229 -152 490 -241 764 -260 353 -25 695 65 988 260
122 82 323 282 406 404 266 394 339 855 208 1310 -34 117 -119 294 -203 420
-87 131 -272 318 -401 404 -133 88 -349 193 -427 207 -15 3 -31 7 -36 10 -8 5
-28 10 -78 20 -14 3 -32 7 -40 9 -56 17 -359 43 -370 32z"/>
</g>
</svg>
