<svg width="400" height="300" viewBox="0 0 400 300" fill="none" xmlns="http://www.w3.org/2000/svg">
<path fill-rule="evenodd" clip-rule="evenodd" d="M204.668 90.3785L224.556 99.6821C226.585 100.491 229.019 100.087 230.238 98.8731C230.631 98.4818 231.064 98.0911 231.514 97.6866C232.48 96.8161 233.48 95.9127 234.296 94.8277C235.92 93.2098 236.326 90.783 235.108 89.1644L225.773 69.3438C229.019 64.0856 231.455 58.0179 233.079 51.9504L254.186 44.6692C256.214 43.8603 257.432 42.2422 257.838 39.8151V36.9837V34.1521C257.838 32.1296 256.214 30.1069 254.186 29.298L233.485 21.6124C231.861 15.5449 229.427 9.47728 226.179 4.21874L228.166 0C268.194 12.0959 297.148 48.9776 297.148 92.8579C297.148 109.755 292.815 125.613 285.207 139.419C284.72 138.281 283.173 137.532 282.001 137.532L265.275 138.348C262.419 134.677 259.156 131.414 255.485 128.559L256.3 111.837C256.3 110.613 255.485 108.981 254.261 108.573C252.629 107.758 251.404 107.35 249.773 106.942C248.549 106.534 246.918 106.942 246.102 107.758L235.086 119.994C230.599 119.178 225.703 119.178 221.216 119.994L210.201 107.758C209.386 106.534 207.754 106.126 206.53 106.942C206.172 107.121 205.814 107.221 205.491 107.312C205.078 107.429 204.72 107.529 204.49 107.758C203.675 108.165 202.859 108.573 202.45 108.573C201.227 108.981 200.41 110.613 200.41 111.837L201.227 128.559C197.554 131.414 193.883 134.677 191.436 138.348L174.71 137.532C173.486 137.532 171.854 138.348 171.446 139.571C170.63 141.202 170.223 142.426 169.814 144.058C169.405 145.281 169.814 146.912 170.63 147.728L182.868 158.74C182.053 163.227 182.053 168.121 182.868 172.608L170.63 183.62C170.045 184.009 169.647 184.584 169.479 185.212C130.232 172.566 102 135.862 102 92.8579C102 78.0577 105.325 64.0533 111.263 51.5277C112.938 57.6133 115.373 63.6811 118.62 68.9393L108.879 89.1644C108.068 91.1874 108.474 93.6143 109.691 94.8277C110.084 95.2191 110.476 95.6522 110.882 96.1003C111.737 97.0425 112.651 98.0504 113.751 98.8731C115.373 100.491 117.809 100.896 119.432 99.6821L139.321 90.3785C144.598 93.6143 150.685 96.0412 156.773 97.6597L164.08 118.694C164.891 120.716 166.515 121.93 168.949 122.334H171.791H174.632C176.662 122.334 178.69 120.716 179.503 118.694L186.809 97.6597C193.708 96.0412 199.391 93.6143 204.668 90.3785ZM227.66 184.165C238.127 184.165 246.614 175.796 246.614 165.472C246.614 155.149 238.127 146.78 227.66 146.78C217.193 146.78 208.707 155.149 208.707 165.472C208.707 175.796 217.193 184.165 227.66 184.165ZM198.872 36.7816C198.872 51.4726 186.929 63.3821 172.197 63.3821C157.465 63.3821 145.522 51.4726 145.522 36.7816C145.522 22.0906 157.465 10.1812 172.197 10.1812C186.929 10.1812 198.872 22.0906 198.872 36.7816Z" fill="#EFF8FA"/>
<path d="M4.62994 272.87C4.62994 273.661 4.96871 274 5.75919 274H10.8408C11.6313 274 11.9701 273.661 11.9701 272.87V256.665H27.4973V272.87C27.4973 273.661 27.8361 274 28.6266 274H33.7082C34.4987 274 34.8375 273.661 34.8375 272.87V235.605C34.8375 234.814 34.4987 234.476 33.7082 234.476H28.6266C27.8361 234.476 27.4973 234.814 27.4973 235.605V249.777H11.9701V235.605C11.9701 234.814 11.6313 234.476 10.8408 234.476H5.75919C4.96871 234.476 4.62994 234.814 4.62994 235.605V272.87ZM62.4799 272.531C62.8751 273.717 63.2704 274 64.0044 274H68.0132C68.8037 274 69.1425 273.661 69.1425 272.87V248.591C69.1425 247.801 68.8037 247.462 68.0132 247.462H63.2704C62.4799 247.462 62.1411 247.801 62.1411 248.591V249.608C60.2214 247.857 58.0193 246.897 54.4622 246.897C47.1221 246.897 40.8547 251.979 40.8547 260.731C40.8547 270.104 47.1785 274.564 54.2928 274.564C58.1323 274.564 60.2778 273.378 62.1976 271.741L62.4799 272.531ZM62.1411 261.973C62.1411 263.78 61.7459 264.683 60.786 265.982C59.6003 267.45 57.6241 268.353 55.3091 268.353C51.3567 268.353 48.0819 265.474 48.0819 260.731C48.0819 255.988 51.5261 253.108 55.4221 253.108C57.6806 253.108 59.318 253.786 60.5602 254.972C61.7459 256.101 62.1411 257.287 62.1411 259.037V261.973ZM97.0708 265.361C96.8449 265.135 96.6191 265.022 96.3932 265.022C96.1109 265.022 95.9415 265.135 95.7157 265.361C93.7959 267.45 91.6503 268.353 89.2225 268.353C85.1007 268.353 81.8823 265.361 81.8823 260.787C81.8823 256.044 85.2701 253.108 89.2789 253.108C91.9891 253.108 93.6265 253.955 95.5463 255.875C95.7721 256.101 95.998 256.214 96.2803 256.214C96.5626 256.214 96.732 256.101 96.9578 255.875L99.7245 252.431C99.9504 252.148 100.063 251.923 100.063 251.697C100.063 251.414 99.8939 251.132 99.6116 250.85C97.5225 248.704 94.1912 246.897 89.3918 246.897C81.2612 246.897 74.6551 252.374 74.6551 260.731C74.6551 269.934 81.4871 274.564 89.1095 274.564C93.5136 274.564 96.7885 273.378 100.233 269.708C100.459 269.482 100.571 269.257 100.571 269.031C100.571 268.805 100.459 268.579 100.289 268.41L97.0708 265.361ZM105.185 272.87C105.185 273.661 105.524 274 106.315 274H111.058C111.848 274 112.187 273.661 112.187 272.87V264.062L113.203 263.046L120.6 273.209C120.939 273.717 121.39 274 121.955 274H128.9C129.352 274 129.577 273.774 129.577 273.435C129.577 273.209 129.521 273.096 129.408 272.927L118.341 257.738L127.262 248.591C127.432 248.422 127.488 248.196 127.488 248.027C127.488 247.688 127.262 247.462 126.811 247.462H119.809C119.245 247.462 118.68 247.801 118.285 248.253L112.187 254.576V234.476C112.187 233.685 111.848 233.346 111.058 233.346H106.315C105.524 233.346 105.185 233.685 105.185 234.476V272.87ZM149.955 267.168C149.955 272.306 153.343 274.564 158.424 274.564C159.836 274.564 161.304 274.451 162.377 274.282C163.054 274.169 163.224 274 163.224 273.435V268.692C163.224 268.297 163.054 268.071 162.659 268.071C162.038 268.071 161.078 268.353 159.949 268.353C157.916 268.353 156.956 267.111 156.956 264.74V253.673H162.716C163.506 253.673 163.845 253.334 163.845 252.544V248.591C163.845 247.801 163.506 247.462 162.716 247.462H156.956V239.444C156.956 238.654 156.618 238.315 155.827 238.315H151.084C150.294 238.315 149.955 238.654 149.955 239.444V247.462H145.946C145.156 247.462 144.817 247.801 144.817 248.591V252.544C144.817 253.334 145.156 253.673 145.946 253.673H149.955V267.168ZM168.871 272.87C168.871 273.661 169.21 274 170.001 274H174.744C175.534 274 175.873 273.661 175.873 272.87V263.159C175.873 260.11 176.494 258.529 177.68 256.665C178.922 254.689 181.011 253.108 183.495 253.108C186.036 253.108 187.448 254.463 187.448 257.004V272.87C187.448 273.661 187.786 274 188.577 274H193.32C194.11 274 194.449 273.661 194.449 272.87V254.689C194.449 250.059 191.174 246.897 185.471 246.897C181.801 246.897 178.527 248.365 175.873 250.85V234.476C175.873 233.685 175.534 233.346 174.744 233.346H170.001C169.21 233.346 168.871 233.685 168.871 234.476V272.87ZM222.741 265.248C222.459 264.965 222.233 264.853 222.007 264.853C221.668 264.853 221.443 265.022 221.16 265.361C219.41 267.224 217.264 268.579 214.272 268.579C210.715 268.579 207.835 266.772 206.875 263.272H226.072C226.863 263.272 227.202 262.933 227.202 262.142V260.448C227.202 254.012 223.023 246.897 213.764 246.897C206.423 246.897 199.987 252.318 199.987 260.731C199.987 269.652 206.649 274.564 213.989 274.564C219.184 274.564 222.12 273.096 225.734 269.539C225.96 269.313 226.072 269.087 226.072 268.861C226.072 268.636 225.96 268.41 225.79 268.24L222.741 265.248ZM206.875 257.399C207.835 254.859 210.263 252.77 213.707 252.77C216.926 252.77 219.297 254.52 220.2 257.399H206.875ZM247.353 272.87C247.353 273.661 247.692 274 248.482 274H253.564C254.355 274 254.693 273.661 254.693 272.87V248.422L272.027 272.87C272.479 273.548 272.931 274 274.06 274H278.069C278.859 274 279.198 273.661 279.198 272.87V235.605C279.198 234.814 278.859 234.476 278.069 234.476H272.987C272.197 234.476 271.858 234.814 271.858 235.605V259.206L255.314 235.605C254.863 234.927 254.411 234.476 253.282 234.476H248.482C247.692 234.476 247.353 234.814 247.353 235.605V272.87ZM299.293 274.564C307.028 274.564 313.408 269.991 313.408 260.731C313.408 252.092 307.197 246.897 299.293 246.897C291.388 246.897 285.177 252.092 285.177 260.731C285.177 269.991 291.557 274.564 299.293 274.564ZM299.293 268.353C295.058 268.353 292.404 265.248 292.404 260.787C292.404 255.875 295.566 253.108 299.293 253.108C303.019 253.108 306.181 255.875 306.181 260.787C306.181 265.248 303.527 268.353 299.293 268.353ZM319.071 272.87C319.071 273.661 319.41 274 320.2 274H324.943C325.733 274 326.072 273.661 326.072 272.87V262.538C326.072 259.15 327.032 256.891 328.444 255.254C329.46 254.068 330.872 253.108 332.791 253.108C334.598 253.108 335.671 254.012 335.897 255.536C336.01 256.214 336.179 256.44 336.8 256.44H341.374C342.108 256.44 342.503 256.101 342.503 255.31C342.503 250.342 339.228 246.897 333.977 246.897C330.476 246.897 327.935 248.196 326.072 250.285V248.591C326.072 247.801 325.733 247.462 324.943 247.462H320.2C319.41 247.462 319.071 247.801 319.071 248.591V272.87ZM350.883 267.168C350.883 272.306 354.27 274.564 359.352 274.564C360.764 274.564 362.232 274.451 363.304 274.282C363.982 274.169 364.151 274 364.151 273.435V268.692C364.151 268.297 363.982 268.071 363.587 268.071C362.966 268.071 362.006 268.353 360.877 268.353C358.844 268.353 357.884 267.111 357.884 264.74V253.673H363.643C364.434 253.673 364.773 253.334 364.773 252.544V248.591C364.773 247.801 364.434 247.462 363.643 247.462H357.884V239.444C357.884 238.654 357.545 238.315 356.755 238.315H352.012C351.221 238.315 350.883 238.654 350.883 239.444V247.462H346.874C346.083 247.462 345.745 247.801 345.745 248.591V252.544C345.745 253.334 346.083 253.673 346.874 253.673H350.883V267.168ZM369.799 272.87C369.799 273.661 370.138 274 370.928 274H375.671C376.462 274 376.8 273.661 376.8 272.87V263.159C376.8 260.11 377.421 258.529 378.607 256.665C379.849 254.689 381.938 253.108 384.423 253.108C386.964 253.108 388.375 254.463 388.375 257.004V272.87C388.375 273.661 388.714 274 389.504 274H394.247C395.038 274 395.377 273.661 395.377 272.87V254.689C395.377 250.059 392.102 246.897 386.399 246.897C382.729 246.897 379.454 248.365 376.8 250.85V234.476C376.8 233.685 376.462 233.346 375.671 233.346H370.928C370.138 233.346 369.799 233.685 369.799 234.476V272.87Z" fill="#EFF8FA"/>
</svg>
