<svg width="61" height="58" viewBox="0 0 61 58" fill="none" xmlns="http://www.w3.org/2000/svg">
<path fill-rule="evenodd" clip-rule="evenodd" d="M32.0666 28.2283L38.2783 31.1341C38.9122 31.3868 39.6724 31.2605 40.0531 30.8815C40.1757 30.7592 40.3111 30.6372 40.4517 30.5109C40.7535 30.239 41.0658 29.9568 41.3207 29.618C41.8279 29.1126 41.9546 28.3546 41.5741 27.8491L38.6584 21.6585C39.6724 20.0161 40.4332 18.121 40.9406 16.2259L47.5328 13.9517C48.1663 13.6991 48.5468 13.1937 48.6735 12.4356V11.5513V10.6669C48.6735 10.0352 48.1663 9.40342 47.5328 9.15076L41.0673 6.75029C40.5599 4.8552 39.7997 2.96008 38.7855 1.31766L39.4061 0C51.9082 3.77797 60.9515 15.2974 60.9515 29.0027C60.9515 34.2801 59.5982 39.2334 57.2218 43.5453C57.0698 43.1898 56.5865 42.9558 56.2204 42.9558L50.9963 43.2107C50.1044 42.0642 49.0852 41.045 47.9385 40.1534L48.1933 34.9304C48.1933 34.5481 47.9385 34.0387 47.5562 33.9112C47.0466 33.6565 46.6641 33.529 46.1547 33.4018C45.7722 33.2743 45.2628 33.4018 45.0079 33.6565L41.5673 37.4782C40.1658 37.2233 38.6368 37.2233 37.2353 37.4782L33.795 33.6565C33.5403 33.2743 33.0307 33.1469 32.6484 33.4018C32.5365 33.4576 32.4247 33.4889 32.3237 33.5173C32.1948 33.5537 32.0828 33.585 32.0112 33.6565C31.7565 33.7838 31.5016 33.9112 31.374 33.9112C30.992 34.0387 30.7369 34.5481 30.7369 34.9304L30.992 40.1534C29.8448 41.045 28.6982 42.0642 27.9339 43.2107L22.7098 42.9558C22.3275 42.9558 21.8179 43.2107 21.6902 43.5927C21.4355 44.1023 21.3083 44.4845 21.1806 44.9941C21.053 45.3763 21.1807 45.8857 21.4355 46.1404L25.2579 49.58C25.0032 50.9814 25.0032 52.5101 25.2579 53.9113L21.4355 57.3508C21.2529 57.4723 21.1284 57.652 21.0761 57.8479C8.81797 53.8984 0 42.4343 0 29.0027C0 24.3801 1.0385 20.0061 2.89318 16.0939C3.41626 17.9946 4.17697 19.8898 5.19113 21.5321L2.14869 27.8491C1.89526 28.481 2.02198 29.239 2.40212 29.618C2.52476 29.7402 2.64742 29.8755 2.77412 30.0154C3.04107 30.3097 3.32653 30.6245 3.67013 30.8815C4.17697 31.3868 4.9377 31.5131 5.44454 31.1341L11.6566 28.2283C13.3047 29.239 15.2059 29.997 17.1074 30.5025L19.3896 37.0721C19.643 37.7038 20.1504 38.0828 20.9106 38.2091H21.7981H22.6854C23.3195 38.2091 23.953 37.7038 24.207 37.0721L26.4886 30.5025C28.6437 29.997 30.4185 29.239 32.0666 28.2283ZM39.2479 57.521C42.5171 57.521 45.1678 54.907 45.1678 51.6826C45.1678 48.4582 42.5171 45.8444 39.2479 45.8444C35.9787 45.8444 33.328 48.4582 33.328 51.6826C33.328 54.907 35.9787 57.521 39.2479 57.521ZM30.2562 11.4882C30.2562 16.0766 26.5262 19.7964 21.9249 19.7964C17.3235 19.7964 13.5934 16.0766 13.5934 11.4882C13.5934 6.89965 17.3235 3.17994 21.9249 3.17994C26.5262 3.17994 30.2562 6.89965 30.2562 11.4882Z" fill="#183249"/>
</svg>
