<svg width="485" height="75" viewBox="0 0 485 75" fill="none" xmlns="http://www.w3.org/2000/svg">
<path fill-rule="evenodd" clip-rule="evenodd" d="M32.0666 28.2283L38.2783 31.1341C38.9122 31.3868 39.6724 31.2605 40.0531 30.8815C40.1757 30.7592 40.3111 30.6372 40.4517 30.5109C40.7535 30.239 41.0658 29.9568 41.3207 29.618C41.8279 29.1126 41.9546 28.3546 41.5741 27.8491L38.6584 21.6585C39.6724 20.0161 40.4332 18.121 40.9406 16.2259L47.5328 13.9517C48.1663 13.6991 48.5468 13.1937 48.6735 12.4356V11.5513V10.6669C48.6735 10.0352 48.1663 9.40342 47.5328 9.15076L41.0673 6.75029C40.5599 4.8552 39.7997 2.96008 38.7855 1.31766L39.4061 0C51.9082 3.77797 60.9515 15.2974 60.9515 29.0027C60.9515 34.2801 59.5982 39.2334 57.2218 43.5453C57.0698 43.1898 56.5865 42.9558 56.2204 42.9558L50.9963 43.2107C50.1044 42.0642 49.0852 41.045 47.9385 40.1534L48.1933 34.9304C48.1933 34.5481 47.9385 34.0387 47.5562 33.9112C47.0466 33.6565 46.6641 33.529 46.1547 33.4018C45.7722 33.2743 45.2628 33.4018 45.0079 33.6565L41.5673 37.4782C40.1658 37.2233 38.6368 37.2233 37.2353 37.4782L33.795 33.6565C33.5403 33.2743 33.0307 33.1469 32.6484 33.4018C32.5365 33.4576 32.4247 33.4889 32.3237 33.5173C32.1948 33.5537 32.0828 33.585 32.0112 33.6565C31.7565 33.7838 31.5016 33.9112 31.374 33.9112C30.992 34.0387 30.7369 34.5481 30.7369 34.9304L30.992 40.1534C29.8448 41.045 28.6982 42.0642 27.9339 43.2107L22.7098 42.9558C22.3275 42.9558 21.8179 43.2107 21.6902 43.5927C21.4355 44.1023 21.3083 44.4845 21.1806 44.9941C21.053 45.3763 21.1807 45.8857 21.4355 46.1404L25.2579 49.58C25.0032 50.9814 25.0032 52.5101 25.2579 53.9113L21.4355 57.3508C21.2529 57.4723 21.1284 57.652 21.0761 57.8479C8.81797 53.8984 0 42.4343 0 29.0027C0 24.3801 1.0385 20.0061 2.89318 16.0939C3.41626 17.9946 4.17697 19.8898 5.19113 21.5321L2.14869 27.8491C1.89526 28.481 2.02198 29.239 2.40212 29.618C2.52476 29.7402 2.64742 29.8755 2.77412 30.0154C3.04107 30.3097 3.32653 30.6245 3.67013 30.8815C4.17697 31.3868 4.9377 31.5131 5.44454 31.1341L11.6566 28.2283C13.3047 29.239 15.2059 29.997 17.1074 30.5025L19.3896 37.0721C19.643 37.7038 20.1504 38.0828 20.9106 38.2091H21.7981H22.6854C23.3195 38.2091 23.953 37.7038 24.207 37.0721L26.4886 30.5025C28.6437 29.997 30.4185 29.239 32.0666 28.2283ZM39.2479 57.521C42.5171 57.521 45.1678 54.907 45.1678 51.6826C45.1678 48.4582 42.5171 45.8444 39.2479 45.8444C35.9787 45.8444 33.328 48.4582 33.328 51.6826C33.328 54.907 35.9787 57.521 39.2479 57.521ZM30.2562 11.4882C30.2562 16.0766 26.5262 19.7964 21.9249 19.7964C17.3235 19.7964 13.5934 16.0766 13.5934 11.4882C13.5934 6.89965 17.3235 3.17994 21.9249 3.17994C26.5262 3.17994 30.2562 6.89965 30.2562 11.4882Z" fill="#EFF8FA"/>
<path d="M89.5008 47.8709C89.5008 48.6613 89.8396 49.0001 90.63 49.0001H95.7117C96.5022 49.0001 96.8409 48.6613 96.8409 47.8709V31.6661H112.368V47.8709C112.368 48.6613 112.707 49.0001 113.497 49.0001H118.579C119.37 49.0001 119.708 48.6613 119.708 47.8709V10.6055C119.708 9.81505 119.37 9.47627 118.579 9.47627H113.497C112.707 9.47627 112.368 9.81505 112.368 10.6055V24.7776H96.8409V10.6055C96.8409 9.81505 96.5022 9.47627 95.7117 9.47627H90.63C89.8396 9.47627 89.5008 9.81505 89.5008 10.6055V47.8709ZM147.351 47.5321C147.746 48.7178 148.141 49.0001 148.875 49.0001H152.884C153.675 49.0001 154.013 48.6613 154.013 47.8709V23.5919C154.013 22.8015 153.675 22.4627 152.884 22.4627H148.141C147.351 22.4627 147.012 22.8015 147.012 23.5919V24.6083C145.092 22.8579 142.89 21.8981 139.333 21.8981C131.993 21.8981 125.726 26.9797 125.726 35.7314C125.726 45.1042 132.049 49.5647 139.164 49.5647C143.003 49.5647 145.149 48.379 147.068 46.7416L147.351 47.5321ZM147.012 36.9736C147.012 38.7804 146.617 39.6838 145.657 40.9824C144.471 42.4505 142.495 43.3539 140.18 43.3539C136.228 43.3539 132.953 40.4743 132.953 35.7314C132.953 30.9885 136.397 28.1089 140.293 28.1089C142.551 28.1089 144.189 28.7865 145.431 29.9722C146.617 31.1015 147.012 32.2872 147.012 34.0375V36.9736ZM181.942 40.3613C181.716 40.1355 181.49 40.0226 181.264 40.0226C180.982 40.0226 180.812 40.1355 180.587 40.3613C178.667 42.4505 176.521 43.3539 174.093 43.3539C169.972 43.3539 166.753 40.3613 166.753 35.7879C166.753 31.045 170.141 28.1089 174.15 28.1089C176.86 28.1089 178.497 28.9559 180.417 30.8756C180.643 31.1015 180.869 31.2144 181.151 31.2144C181.433 31.2144 181.603 31.1015 181.829 30.8756L184.595 27.4314C184.821 27.1491 184.934 26.9232 184.934 26.6974C184.934 26.4151 184.765 26.1327 184.482 25.8504C182.393 23.7049 179.062 21.8981 174.263 21.8981C166.132 21.8981 159.526 27.3749 159.526 35.7314C159.526 44.9348 166.358 49.5647 173.98 49.5647C178.384 49.5647 181.659 48.379 185.104 44.709C185.329 44.4831 185.442 44.2573 185.442 44.0314C185.442 43.8056 185.329 43.5797 185.16 43.4103L181.942 40.3613ZM190.056 47.8709C190.056 48.6613 190.395 49.0001 191.186 49.0001H195.928C196.719 49.0001 197.058 48.6613 197.058 47.8709V39.0627L198.074 38.0464L205.471 48.2096C205.809 48.7178 206.261 49.0001 206.826 49.0001H213.771C214.222 49.0001 214.448 48.7743 214.448 48.4355C214.448 48.2096 214.392 48.0967 214.279 47.9273L203.212 32.7389L212.133 23.5919C212.303 23.4225 212.359 23.1967 212.359 23.0273C212.359 22.6885 212.133 22.4627 211.682 22.4627H204.68C204.116 22.4627 203.551 22.8015 203.156 23.2532L197.058 29.577V9.47627C197.058 8.68579 196.719 8.34701 195.928 8.34701H191.186C190.395 8.34701 190.056 8.68579 190.056 9.47627V47.8709ZM234.826 42.1681C234.826 47.3062 238.214 49.5647 243.295 49.5647C244.707 49.5647 246.175 49.4518 247.248 49.2824C247.925 49.1695 248.095 49.0001 248.095 48.4355V43.6926C248.095 43.2974 247.925 43.0715 247.53 43.0715C246.909 43.0715 245.949 43.3539 244.82 43.3539C242.787 43.3539 241.827 42.1117 241.827 39.7402V28.6736H247.586C248.377 28.6736 248.716 28.3348 248.716 27.5443V23.5919C248.716 22.8015 248.377 22.4627 247.586 22.4627H241.827V14.445C241.827 13.6545 241.489 13.3157 240.698 13.3157H235.955C235.165 13.3157 234.826 13.6545 234.826 14.445V22.4627H230.817C230.027 22.4627 229.688 22.8015 229.688 23.5919V27.5443C229.688 28.3348 230.027 28.6736 230.817 28.6736H234.826V42.1681ZM253.742 47.8709C253.742 48.6613 254.081 49.0001 254.871 49.0001H259.614C260.405 49.0001 260.744 48.6613 260.744 47.8709V38.1593C260.744 35.1103 261.365 33.5294 262.55 31.6661C263.793 29.6899 265.882 28.1089 268.366 28.1089C270.907 28.1089 272.318 29.464 272.318 32.0049V47.8709C272.318 48.6613 272.657 49.0001 273.448 49.0001H278.191C278.981 49.0001 279.32 48.6613 279.32 47.8709V29.6899C279.32 25.06 276.045 21.8981 270.342 21.8981C266.672 21.8981 263.397 23.3661 260.744 25.8504V9.47627C260.744 8.68579 260.405 8.34701 259.614 8.34701H254.871C254.081 8.34701 253.742 8.68579 253.742 9.47627V47.8709ZM307.612 40.2484C307.33 39.9661 307.104 39.8532 306.878 39.8532C306.539 39.8532 306.313 40.0226 306.031 40.3613C304.281 42.2246 302.135 43.5797 299.143 43.5797C295.585 43.5797 292.706 41.7729 291.746 38.2722H310.943C311.734 38.2722 312.073 37.9334 312.073 37.143V35.4491C312.073 29.0123 307.894 21.8981 298.634 21.8981C291.294 21.8981 284.858 27.3185 284.858 35.7314C284.858 44.6525 291.52 49.5647 298.86 49.5647C304.055 49.5647 306.991 48.0967 310.605 44.5396C310.83 44.3137 310.943 44.0879 310.943 43.862C310.943 43.6362 310.83 43.4103 310.661 43.2409L307.612 40.2484ZM291.746 32.4001C292.706 29.8593 295.134 27.7702 298.578 27.7702C301.796 27.7702 304.168 29.5205 305.071 32.4001H291.746ZM332.224 47.8709C332.224 48.6613 332.563 49.0001 333.353 49.0001H338.435C339.225 49.0001 339.564 48.6613 339.564 47.8709V23.4225L356.898 47.8709C357.35 48.5484 357.802 49.0001 358.931 49.0001H362.94C363.73 49.0001 364.069 48.6613 364.069 47.8709V10.6055C364.069 9.81505 363.73 9.47627 362.94 9.47627H357.858C357.068 9.47627 356.729 9.81505 356.729 10.6055V34.2069L340.185 10.6055C339.734 9.92797 339.282 9.47627 338.153 9.47627H333.353C332.563 9.47627 332.224 9.81505 332.224 10.6055V47.8709ZM384.163 49.5647C391.899 49.5647 398.279 44.9913 398.279 35.7314C398.279 27.0926 392.068 21.8981 384.163 21.8981C376.259 21.8981 370.048 27.0926 370.048 35.7314C370.048 44.9913 376.428 49.5647 384.163 49.5647ZM384.163 43.3539C379.929 43.3539 377.275 40.2484 377.275 35.7879C377.275 30.8756 380.437 28.1089 384.163 28.1089C387.89 28.1089 391.052 30.8756 391.052 35.7879C391.052 40.2484 388.398 43.3539 384.163 43.3539ZM403.942 47.8709C403.942 48.6613 404.28 49.0001 405.071 49.0001H409.814C410.604 49.0001 410.943 48.6613 410.943 47.8709V37.5382C410.943 34.1504 411.903 31.8919 413.314 30.2545C414.331 29.0688 415.742 28.1089 417.662 28.1089C419.469 28.1089 420.542 29.0123 420.768 30.5368C420.88 31.2144 421.05 31.4402 421.671 31.4402H426.244C426.978 31.4402 427.374 31.1015 427.374 30.311C427.374 25.3423 424.099 21.8981 418.848 21.8981C415.347 21.8981 412.806 23.1967 410.943 25.2858V23.5919C410.943 22.8015 410.604 22.4627 409.814 22.4627H405.071C404.28 22.4627 403.942 22.8015 403.942 23.5919V47.8709ZM435.754 42.1681C435.754 47.3062 439.141 49.5647 444.223 49.5647C445.635 49.5647 447.103 49.4518 448.175 49.2824C448.853 49.1695 449.022 49.0001 449.022 48.4355V43.6926C449.022 43.2974 448.853 43.0715 448.458 43.0715C447.837 43.0715 446.877 43.3539 445.747 43.3539C443.715 43.3539 442.755 42.1117 442.755 39.7402V28.6736H448.514C449.305 28.6736 449.643 28.3348 449.643 27.5443V23.5919C449.643 22.8015 449.305 22.4627 448.514 22.4627H442.755V14.445C442.755 13.6545 442.416 13.3157 441.626 13.3157H436.883C436.092 13.3157 435.754 13.6545 435.754 14.445V22.4627H431.745C430.954 22.4627 430.615 22.8015 430.615 23.5919V27.5443C430.615 28.3348 430.954 28.6736 431.745 28.6736H435.754V42.1681ZM454.67 47.8709C454.67 48.6613 455.009 49.0001 455.799 49.0001H460.542C461.332 49.0001 461.671 48.6613 461.671 47.8709V38.1593C461.671 35.1103 462.292 33.5294 463.478 31.6661C464.72 29.6899 466.809 28.1089 469.294 28.1089C471.835 28.1089 473.246 29.464 473.246 32.0049V47.8709C473.246 48.6613 473.585 49.0001 474.375 49.0001H479.118C479.909 49.0001 480.247 48.6613 480.247 47.8709V29.6899C480.247 25.06 476.973 21.8981 471.27 21.8981C467.6 21.8981 464.325 23.3661 461.671 25.8504V9.47627C461.671 8.68579 461.332 8.34701 460.542 8.34701H455.799C455.009 8.34701 454.67 8.68579 454.67 9.47627V47.8709Z" fill="#EFF8FA"/>
</svg>
