<svg class="TopBar-logo" id="Layer_1" data-name="Layer 1" xmlns="http://www.w3.org/2000/svg" viewBox="0 0 800 220"><path class="cls-1" d="M504.16,47.08c-25.51.76-45.48,22.36-45.48,47.89v58.29a2.49,2.49,0,0,0,2.49,2.49H475.3a2.49,2.49,0,0,0,2.49-2.49V94.77c0-15,11.47-27.83,26.4-28.57A27.82,27.82,0,0,1,533.38,94v59.29a2.49,2.49,0,0,0,2.49,2.49H550a2.49,2.49,0,0,0,2.49-2.49V94A47,47,0,0,0,504.16,47.08Z"/><path class="cls-1" d="M623.42,47.61a54.28,54.28,0,1,0,32.8,95.53v10.11a2.49,2.49,0,0,0,2.49,2.49h14.14a2.49,2.49,0,0,0,2.49-2.49v-50.3C675.33,73.7,652.64,48.86,623.42,47.61ZM621.06,137a35.17,35.17,0,1,1,35.16-35.17A35.21,35.21,0,0,1,621.06,137Z"/><path class="cls-1" d="M748.09,47.61a54.28,54.28,0,1,0,32.8,95.53V164.6c0,19.72-16.13,36.47-35.85,36.11a34.94,34.94,0,0,1-28-14.8,2.46,2.46,0,0,0-3.3-.64l-12,7.44a2.51,2.51,0,0,0-.73,3.56,53.9,53.9,0,0,0,43.69,23.55c30.43.58,55.34-24.93,55.34-55.37V103C800,73.7,777.31,48.86,748.09,47.61ZM745.72,137a35.17,35.17,0,1,1,35.17-35.17A35.21,35.21,0,0,1,745.72,137Z"/><path class="cls-1" d="M292.47,47.61a54.28,54.28,0,1,0,32.81,95.53V164.6c0,19.72-16.13,36.48-35.85,36.11a34.94,34.94,0,0,1-28-14.8,2.46,2.46,0,0,0-3.3-.64l-12,7.44a2.51,2.51,0,0,0-.73,3.56A53.9,53.9,0,0,0,289,219.82c30.43.58,55.34-24.93,55.34-55.37V103C344.39,73.7,321.7,48.86,292.47,47.61ZM290.11,137a35.17,35.17,0,1,1,35.17-35.17A35.21,35.21,0,0,1,290.11,137Z"/><path class="cls-1" d="M215.59,48.31l-14.14.22A2.49,2.49,0,0,0,199,51v56.4a27.82,27.82,0,0,1-29.19,27.76c-14.93-.73-26.4-13.62-26.4-28.57V51.06a2.49,2.49,0,0,0-2.49-2.49H126.79a2.49,2.49,0,0,0-2.49,2.49v55.37c0,25.52,20,47.13,45.49,47.89a47,47,0,0,0,48.33-46.89V50.8A2.49,2.49,0,0,0,215.59,48.31Z"/><path class="cls-1" d="M405.15,92.72C391.3,88.87,382.89,86,382.89,78.5c0-10.85,11.87-14.79,19.85-14.79,9.1,0,14.61,2.1,21.77,6.48a2.49,2.49,0,0,0,3.38-.78l6.56-10.18a2.49,2.49,0,0,0-.82-3.49A60.86,60.86,0,0,0,402.09,47c-18,0-36.53,11.85-36.53,31.68,0,20.24,18,25.1,33.83,29.39,15,4.05,24.08,7.19,24.08,16.64,0,8.68-8.92,15.23-20.74,15.23-11.38,0-20.69-5.14-27-10a2.47,2.47,0,0,0-3.44.39l-7.79,9.5a2.51,2.51,0,0,0,.36,3.52c10.24,8.59,23.88,13.29,38.72,13.29,21.55,0,37.18-13.69,37.18-32.56C440.81,102.63,421,97.13,405.15,92.72Z"/><path class="cls-1" d="M60.63,47.92A54.09,54.09,0,0,0,19.11,60.54V2.66A2.49,2.49,0,0,0,15.33.54L1.19,9.14A2.49,2.49,0,0,0,0,11.27v89.46C0,130,22.69,154.82,51.91,156.07A54.29,54.29,0,0,0,60.63,47.92ZM54.28,137a35.17,35.17,0,1,1,35.17-35.17A35.21,35.21,0,0,1,54.28,137Z"/></svg>